# xmcd
#
# Track frame offsets: 
#        182
#        13692
#        28512
#        42537
#        56887
#        70285
#        83032
#        96200
#        110855
#        124797
#        137480
#        150295
#        165697
#        178972
#        194205
#        207887
#        221810
#        236377
#        250810
#        264680
#        277877
#        290777
#
# Disc length: 4058 seconds
#
# Revision: 1
# Processed by: cddbd v1.5.2PL0 Copyright (c) Steve Scherf et al.
# Submitted via: ExactAudioCopy v0.99pb1
#
DISCID=530fd816
DTITLE=Various Artist - Blues Harmonica (1926 - 1940)
DYEAR=1900
DGENRE=Blues
TTITLE0=De Ford Bailey - Pan American B
TTITLE1=Up Country Blues
TTITLE2=Alcoholic Blues
TTITLE3=Palmer McAbee - Railroad Peice
TTITLE4=Bullet Williams - Escaped Convict
TTITLE5=Touch Me Lightly Mama
TTITLE6=Freeman Stowers - Medley of B, Old Time B, Hog in the mountain
TTITLE7=Robert Cooksey - Need More B
TTITLE8=Jaybird Coleman - Man Trouble B
TTITLE9=Will Sahde - Jug Band Waltz
TTITLE10=Jed Davenport - Cow Cow B
TTITLE11=Noah Lewis - Chicken Special
TTITLE12=Devil in the Woodpile
TTITLE13=Blues Birdhead - Mean Low B
TTITLE14=Jed Davenport - Beal Street Brakedown
TTITLE15=Jaybird Coleman - Coffee Grinder B
TTITLE16=Alfred Lewsis - Friday Moan B
TTITLE17=Hammie Nixon - Drop Down Mama
TTITLE18=Jazz Gillum - Sarah Jane
TTITLE19=Sonny Terry - Harp and Washboard B
TTITLE20=Harmonica Stomp
TTITLE21=Sonny Boy Williamson - Good morning, Schoolgirl
EXTD=ID3G: 0
EXTT0=
EXTT1=
EXTT2=
EXTT3=
EXTT4=
EXTT5=
EXTT6=
EXTT7=
EXTT8=
EXTT9=
EXTT10=
EXTT11=
EXTT12=
EXTT13=
EXTT14=
EXTT15=
EXTT16=
EXTT17=
EXTT18=
EXTT19=
EXTT20=
EXTT21=
PLAYORDER=
